<?xml version="1.0" encoding="utf-8"?>
<!-- Generator: Adobe Illustrator 20.1.0, SVG Export Plug-In . SVG Version: 6.00 Build 0)  -->
<svg version="1.1" id="Layer_1" xmlns="http://www.w3.org/2000/svg" xmlns:xlink="http://www.w3.org/1999/xlink" x="0px" y="0px"
	 viewBox="0 0 960 560" style="enable-background:new 0 0 960 560;" xml:space="preserve">
<style type="text/css">
	.st0{fill:#FFFFFF;}
	.st1{font-family:'Bitter-Regular';}
	.st2{font-size:87.637px;}
</style>
<g>
	<text transform="matrix(1 0 0 1 238.1597 426.752)" class="st0 st1 st2">goodreads</text>
	<g>
		<g>
			<path class="st0" d="M458.3,75.8c6.2,5.8,12.5,11.6,18.6,17.2c-14,14-27.5,27.6-41.2,41.2c-1.3-1.2-2.8-2.5-4.6-4.2
				c-17.5,19.6-35,39.2-52.6,58.9c4.7,5.8,5.4,11.6,2,18.1c-0.5,0.9,0.7,3.3,1.7,4.4c18.1,19.2,36.3,38.2,54.4,57.3
				c4.9,5.1,9.8,10.1,14.5,15.4c2,2.2,4.1,3.2,7.1,3.1c10.7-0.2,21.4-0.1,32.2-0.1c5.4,0,6.4,1.1,6.5,6.5c0,3.7,0,7.4,0,11
				c-0.1,5.2-1.2,6.4-6.6,6.4c-22.2,0-44.4,0-66.6,0c-6.9,0-13.8,0-20.7,0c-5.7,0-6.9-1.2-7-7.1c0-3.4-0.1-6.7,0-10.1
				c0.1-5.5,1.3-6.8,6.8-6.8c11.3,0,22.7,0,34.6,0c-0.8-1.2-1.3-2.1-1.9-2.8c-21.6-22.8-43.2-45.5-65-68.2c-1.1-1.2-3-2.1-4.6-2.4
				c-7-1.5-11.8-6.8-12.3-13.6c-0.4-6.4,3.7-12.2,10.4-14.7c1.5-0.6,3.1-1.3,4.1-2.5c17.8-19.8,35.5-39.7,53.2-59.6
				c0.4-0.4,0.7-1,1-1.4c-6-8.4-5.7-10.7,1.6-18.1c7.5-7.5,14.9-15,22.4-22.4c2.2-2.1,4.8-3.8,7.2-5.6
				C455.2,75.8,456.8,75.8,458.3,75.8z"/>
		</g>
		<path class="st0" d="M463.6,188.1c-1.5-1.5-3.3-2.6-4.1-4.1c-5.5-12.3-10.9-24.6-16.2-37c-0.5-1.1,0.1-3.3,1-4.2
			c13.4-13.6,27-27.1,40.5-40.7c1.7-1.7,3.1-1.8,5.2-0.9c11.7,5.2,23.5,10.3,35.3,15.5c5.3,2.4,5.9,5.2,1.7,9.4
			c-19.6,19.6-39.2,39.2-58.8,58.8C467.1,186,465.6,186.7,463.6,188.1z"/>
		<path class="st0" d="M517.2,143.1c3.2,8.2,0.6,18.7-6.8,25.5c-7.3,6.8-15.7,9.5-25.2,6.7C495.9,164.5,506.5,153.8,517.2,143.1z"/>
	</g>
</g>
</svg>
